<mxfile host="app.diagrams.net" modified="2024-08-21T11:28:45.184Z" agent="Mozilla/5.0 (Windows NT 10.0; Win64; x64) AppleWebKit/537.36 (KHTML, like Gecko) Chrome/126.0.0.0 Whale/3.27.254.15 Safari/537.36" etag="c_LLsYCCLR9umcmDy7ep" version="24.7.1" type="github">
  <diagram name="페이지-1" id="6QmM2Fy_6YvnRoz-SONn">
    <mxGraphModel dx="1434" dy="757" grid="0" gridSize="10" guides="1" tooltips="1" connect="1" arrows="1" fold="1" page="1" pageScale="1" pageWidth="827" pageHeight="1169" math="0" shadow="0">
      <root>
        <mxCell id="0" />
        <mxCell id="1" parent="0" />
        <mxCell id="9M7Lm5SmoHePGqmFWCib-2" value="" style="endArrow=classic;html=1;rounded=0;fontSize=20;strokeWidth=2;" edge="1" parent="1">
          <mxGeometry width="50" height="50" relative="1" as="geometry">
            <mxPoint x="265" y="300" as="sourcePoint" />
            <mxPoint x="428" y="300" as="targetPoint" />
          </mxGeometry>
        </mxCell>
        <mxCell id="9M7Lm5SmoHePGqmFWCib-3" value="변환" style="text;html=1;align=center;verticalAlign=middle;whiteSpace=wrap;rounded=0;fontSize=20;" vertex="1" parent="1">
          <mxGeometry x="286" y="263" width="121" height="30" as="geometry" />
        </mxCell>
        <mxCell id="9M7Lm5SmoHePGqmFWCib-4" value="고급 언어" style="rounded=0;whiteSpace=wrap;html=1;" vertex="1" parent="1">
          <mxGeometry x="144" y="269" width="120" height="60" as="geometry" />
        </mxCell>
        <mxCell id="9M7Lm5SmoHePGqmFWCib-5" value="저급 언어" style="rounded=0;whiteSpace=wrap;html=1;" vertex="1" parent="1">
          <mxGeometry x="438" y="269" width="120" height="60" as="geometry" />
        </mxCell>
      </root>
    </mxGraphModel>
  </diagram>
</mxfile>
